# xmcd CD database file
#
# Track frame offsets:
#	150
#	26492
#	53250
#	74922
#	95140
#	114927
#	142052
#	161752
#	181907
#	201837
#
# Disc length: 2957 seconds
#
# Revision: 3
# Processed by: cddbd v1.5.1PL2 Copyright (c) Steve Scherf et al.
# Submitted via: CDex 1.51
#
DISCID=8e0b8b0a
DTITLE=Various Artist - City Jazz Part 1
DYEAR=1999
DGENRE=Jazz
TTITLE0=Dennis Chambers - Good groove
TTITLE1=Jason Miles - (They're Building) Houses of amazon
TTITLE2=Bill Evans - If only in your dreams
TTITLE3=Peter Materna Quartet - Hip, square and funny
TTITLE4=Jeff Richman - La morena
TTITLE5=Christoph Stiefel - Passion
TTITLE6=Adam Holzman - The laws of physics
TTITLE7=Leni Stern - Dimension
TTITLE8=Mitchel Forman - So show me
TTITLE9=Mitchel Forman and Chuck Loeb - The flow
EXTD=YEAR: 1999
EXTT0=
EXTT1=
EXTT2=
EXTT3=
EXTT4=
EXTT5=
EXTT6=
EXTT7=
EXTT8=
EXTT9=
PLAYORDER=
